<?xml version="1.0" encoding="UTF-8"?>
<svg width="342.57mm" height="113.38mm" version="1.1" viewBox="0 0 342.5737 113.3812" xmlns="http://www.w3.org/2000/svg" xmlns:cc="http://creativecommons.org/ns#" xmlns:dc="http://purl.org/dc/elements/1.1/" xmlns:rdf="http://www.w3.org/1999/02/22-rdf-syntax-ns#">
<defs>
<marker id="f" overflow="visible" orient="auto">
<path transform="scale(.4)" d="m5.77 0-8.65 5v-10z" fill-rule="evenodd" stroke="#000" stroke-width="1pt"/>
</marker>
<marker id="g" overflow="visible" orient="auto">
<path transform="scale(.4)" d="m5.77 0-8.65 5v-10z" fill-rule="evenodd" stroke="#000" stroke-width="1pt"/>
</marker>
<marker id="h" overflow="visible" orient="auto">
<path transform="scale(.4)" d="m5.77 0-8.65 5v-10z" fill-rule="evenodd" stroke="#000" stroke-width="1pt"/>
</marker>
<marker id="i" overflow="visible" orient="auto">
<path transform="scale(.4)" d="m5.77 0-8.65 5v-10z" fill-rule="evenodd" stroke="#000" stroke-width="1pt"/>
</marker>
<marker id="j" overflow="visible" orient="auto">
<path transform="scale(.4)" d="m5.77 0-8.65 5v-10z" fill-rule="evenodd" stroke="#000" stroke-width="1pt"/>
</marker>
<marker id="a" overflow="visible" orient="auto">
<path transform="scale(.4)" d="m5.77 0-8.65 5v-10z" fill-rule="evenodd" stroke="#000" stroke-width="1pt"/>
</marker>
<marker id="b" overflow="visible" orient="auto">
<path transform="scale(.4)" d="m5.77 0-8.65 5v-10z" fill-rule="evenodd" stroke="#000" stroke-width="1pt"/>
</marker>
<marker id="c" overflow="visible" orient="auto">
<path transform="scale(.4)" d="m5.77 0-8.65 5v-10z" fill-rule="evenodd" stroke="#000" stroke-width="1pt"/>
</marker>
<marker id="d" overflow="visible" orient="auto">
<path transform="scale(.4)" d="m5.77 0-8.65 5v-10z" fill-rule="evenodd" stroke="#000" stroke-width="1pt"/>
</marker>
<marker id="e" overflow="visible" orient="auto">
<path transform="scale(.4)" d="m5.77 0-8.65 5v-10z" fill-rule="evenodd" stroke="#000" stroke-width="1pt"/>
</marker>
<marker id="k" overflow="visible" orient="auto">
<path transform="scale(.4)" d="m5.77 0-8.65 5v-10z" fill-rule="evenodd" stroke="#000" stroke-width="1pt"/>
</marker>
</defs>
<metadata>
<rdf:RDF>
<cc:Work rdf:about="">
<dc:format>image/svg+xml</dc:format>
<dc:type rdf:resource="http://purl.org/dc/dcmitype/StillImage"/>
<dc:title/>
</cc:Work>
</rdf:RDF>
</metadata>
<g transform="translate(72.111 156.55)">
<g transform="translate(-72.59 -157.15)">
<circle cx="158.83" cy="67.157" r="10.186" fill="#ffb765" stroke="#dcdcdc" stroke-linecap="square" stroke-linejoin="round" stroke-width=".79373" style="paint-order:fill markers stroke"/>
<path d="m42.813 30.909h18.912" fill="none" marker-end="url(#k)" stroke="#000" stroke-width=".79375"/>
<rect x=".87654" y="20.723" width="41.54" height="20.373" rx="2.5962" ry="2.5466" fill="#a4ff9f" stroke="#dcdcdc" stroke-linecap="square" stroke-linejoin="round" stroke-width=".79373" style="paint-order:fill markers stroke"/>
<text x="8.1567278" y="33.559452" fill="#000000" font-family="sans-serif" font-size="10.583px" letter-spacing="0px" stroke-width=".26458" word-spacing="0px" style="line-height:1.25" xml:space="preserve"><tspan x="8.1567278" y="33.559452" font-family="'Anonymice Nerd Font'" font-size="8.4667px" stroke-width=".26458">master</tspan></text>
<circle cx="327.77" cy="30.909" r="10.186" fill="#a4ff9f" stroke="#dcdcdc" stroke-linecap="square" stroke-linejoin="round" stroke-width=".79373" style="paint-order:fill markers stroke"/>
<g transform="translate(-62.536 22.429)">
<path d="m124.86-21.425c-1.4658 0-2.6458 1.18-2.6458 2.6458v7.8579c0 1.4658 1.18 2.6458 2.6458 2.6458h5.8524l2.9652-0.15503 3.4241 5.9304 3.4236-5.9304 2.9657 0.15503h5.8518c1.4658 0 2.6458-1.18 2.6458-2.6458v-7.8579c0-1.4658-1.18-2.6458-2.6458-2.6458z" fill="#f5ffb8" stroke="#7f7f7f" stroke-linecap="square" stroke-linejoin="round" stroke-width=".79375" style="paint-order:fill markers stroke"/>
<text x="128.67798" y="-12.057444" fill="#000000" font-family="sans-serif" font-size="10.583px" letter-spacing="0px" stroke-width=".26458" word-spacing="0px" style="line-height:1.25" xml:space="preserve"><tspan x="128.67798" y="-12.057444" font-family="'Anonymice Nerd Font'" font-size="8.4667px" stroke-width=".26458">v0.1</tspan></text>
</g>
<rect x=".87654" y="56.971" width="41.54" height="20.373" rx="2.5962" ry="2.5466" fill="#ffb765" stroke="#dcdcdc" stroke-linecap="square" stroke-linejoin="round" stroke-width=".79373" style="paint-order:fill markers stroke"/>
<text x="15.029693" y="69.807396" fill="#000000" font-family="sans-serif" font-size="10.583px" letter-spacing="0px" stroke-width=".26458" word-spacing="0px" style="line-height:1.25" xml:space="preserve"><tspan x="15.029693" y="69.807396" font-family="'Anonymice Nerd Font'" font-size="8.4667px" stroke-width=".26458">dev</tspan></text>
<circle cx="74.563" cy="30.909" r="10.186" fill="#a4ff9f" stroke="#dcdcdc" stroke-linecap="square" stroke-linejoin="round" stroke-width=".79373" style="paint-order:fill markers stroke"/>
<path d="m82.029 37.614 24.589 21.608" fill="none" marker-end="url(#e)" stroke="#000" stroke-width=".79375"/>
<circle cx="116.9" cy="67.157" r="10.186" fill="#ffb765" stroke="#dcdcdc" stroke-linecap="square" stroke-linejoin="round" stroke-width=".79373" style="paint-order:fill markers stroke"/>
<path d="m42.813 67.157h61.246" fill="none" marker-end="url(#d)" stroke="#000" stroke-width=".79375"/>
<path d="m127.08 67.157h18.912" fill="none" marker-end="url(#a)" stroke="#000" stroke-width=".79375"/>
<circle cx="201.17" cy="67.157" r="10.186" fill="#ffb765" stroke="#dcdcdc" stroke-linecap="square" stroke-linejoin="round" stroke-width=".79373" style="paint-order:fill markers stroke"/>
<path d="m169.42 67.157h18.912" fill="none" marker-end="url(#c)" stroke="#000" stroke-width=".79375"/>
<rect x=".87654" y="93.219" width="41.54" height="20.373" rx="2.5962" ry="2.5466" fill="#e091ff" stroke="#dcdcdc" stroke-linecap="square" stroke-linejoin="round" stroke-width=".79373" style="paint-order:fill markers stroke"/>
<text x="5.424078" y="106.10081" fill="#000000" font-family="sans-serif" font-size="10.583px" letter-spacing="0px" stroke-width=".26458" word-spacing="0px" style="line-height:1.25" xml:space="preserve"><tspan x="5.424078" y="106.10081" font-family="'Anonymice Nerd Font'" font-size="8.4667px" stroke-width=".26458">feature</tspan></text>
<path d="m166.3 73.862 24.589 21.608" fill="none" marker-end="url(#j)" stroke="#000" stroke-width=".79375"/>
<circle cx="201.17" cy="103.41" r="10.186" fill="#e091ff" stroke="#dcdcdc" stroke-linecap="square" stroke-linejoin="round" stroke-width=".79373" style="paint-order:fill markers stroke"/>
<path d="m42.813 103.41h145.51" fill="none" marker-end="url(#b)" stroke="#000" stroke-width=".79375"/>
<circle cx="243.1" cy="103.41" r="10.186" fill="#e091ff" stroke="#dcdcdc" stroke-linecap="square" stroke-linejoin="round" stroke-width=".79373" style="paint-order:fill markers stroke"/>
<path d="m211.35 103.41h18.912" fill="none" marker-end="url(#a)" stroke="#000" stroke-width=".79375"/>
<path d="m211.35 67.157h61.245" fill="none" marker-end="url(#h)" stroke="#000" stroke-width=".79375"/>
<circle transform="scale(-1,1)" cx="-285.44" cy="67.157" r="10.186" fill="#ffb765" stroke="#dcdcdc" stroke-linecap="square" stroke-linejoin="round" stroke-width=".79373" style="paint-order:fill markers stroke"/>
<path d="m251.42 97.187 24.589-21.608" fill="none" marker-end="url(#f)" stroke="#000" stroke-width=".79375"/>
<circle transform="scale(-1,1)" cx="-243.1" cy="103.41" r="10.186" fill="#e091ff" stroke="#dcdcdc" stroke-linecap="square" stroke-linejoin="round" stroke-width=".79373" style="paint-order:fill markers stroke"/>
<path d="m85.146 30.909h229.78" fill="none" marker-end="url(#g)" stroke="#000" stroke-width=".79375"/>
<path d="m293.75 60.939 24.589-21.608" fill="none" marker-end="url(#i)" stroke="#000" stroke-width=".79375"/>
<g transform="translate(190.67 22.429)">
<path d="m124.86-21.425c-1.4658 0-2.6458 1.18-2.6458 2.6458v7.8579c0 1.4658 1.18 2.6458 2.6458 2.6458h5.8524l2.9652-0.15503 3.4241 5.9304 3.4236-5.9304 2.9657 0.15503h5.8518c1.4658 0 2.6458-1.18 2.6458-2.6458v-7.8579c0-1.4658-1.18-2.6458-2.6458-2.6458z" fill="#f5ffb8" stroke="#7f7f7f" stroke-linecap="square" stroke-linejoin="round" stroke-width=".79375" style="paint-order:fill markers stroke"/>
<text x="128.67798" y="-12.057444" fill="#000000" font-family="sans-serif" font-size="10.583px" letter-spacing="0px" stroke-width=".26458" word-spacing="0px" style="line-height:1.25" xml:space="preserve"><tspan x="128.67798" y="-12.057444" font-family="'Anonymice Nerd Font'" font-size="8.4667px" stroke-width=".26458">v0.2</tspan></text>
</g>
</g>
</g>
</svg>

